<?xml version="1.0" standalone="no"?>
<!DOCTYPE svg PUBLIC "-//W3C//DTD SVG 20010904//EN"
 "http://www.w3.org/TR/2001/REC-SVG-20010904/DTD/svg10.dtd">
<svg version="1.0" xmlns="http://www.w3.org/2000/svg"
 width="836.000000pt" height="1176.000000pt" viewBox="0 0 836.000000 1176.000000"
 preserveAspectRatio="xMidYMid meet">

<g transform="translate(0.000000,1176.000000) scale(0.100000,-0.100000)"
fill="#000000" stroke="none">
<path d="M1135 11618 c-105 -55 -118 -90 -122 -337 -4 -213 6 -270 55 -323 26
-28 112 -75 147 -80 16 -3 21 -12 23 -51 3 -44 0 -50 -37 -88 l-41 -40 0 -104
0 -103 40 -35 40 -34 0 -86 0 -87 -34 -14 c-19 -8 -37 -24 -41 -35 -3 -12 -32
-39 -63 -60 -132 -90 -393 -349 -504 -500 -47 -64 -131 -190 -165 -246 -53
-90 -193 -390 -193 -417 -1 -7 -9 -31 -20 -53 -11 -22 -20 -51 -20 -65 0 -14
-9 -45 -20 -69 -11 -24 -20 -58 -20 -76 0 -17 -9 -58 -20 -90 -11 -32 -20 -76
-20 -97 0 -21 -8 -74 -17 -116 -17 -72 -18 -245 -18 -2852 0 -2593 1 -2782 18
-2888 9 -62 17 -139 17 -172 0 -32 7 -92 16 -132 8 -40 19 -112 24 -159 5 -47
16 -102 25 -122 8 -20 15 -51 15 -69 1 -18 8 -51 16 -73 8 -22 19 -62 24 -90
4 -27 16 -72 25 -100 65 -187 91 -259 116 -311 10 -23 19 -48 19 -57 0 -9 4
-19 10 -22 5 -3 26 -38 46 -78 57 -114 70 -135 152 -259 24 -38 48 -68 52 -68
4 0 12 -10 17 -22 20 -44 166 -189 283 -283 65 -52 122 -95 127 -95 4 0 29
-19 54 -43 40 -37 107 -75 234 -133 80 -36 186 -68 380 -115 42 -10 78 -16
280 -46 112 -17 252 -18 2170 -18 l2050 0 141 23 c78 12 161 29 184 37 23 8
59 15 79 15 20 0 48 6 63 14 14 8 48 19 75 24 27 6 62 18 78 26 17 9 38 16 48
16 10 0 35 9 55 20 20 11 64 32 97 47 189 85 463 281 485 348 5 16 23 44 38
60 42 45 153 186 187 240 43 67 75 124 143 260 56 111 67 138 102 235 7 19 21
56 32 82 10 26 18 55 18 65 0 10 7 31 15 47 8 16 18 47 21 70 3 22 14 67 25
99 10 31 19 70 19 86 0 15 9 57 20 91 11 34 20 81 20 104 0 22 7 70 16 106 8
36 19 121 24 190 5 69 15 161 22 205 10 64 13 638 13 2855 0 2610 -1 2779 -17
2843 -10 38 -18 87 -18 110 0 23 -9 71 -20 105 -11 35 -20 77 -20 93 0 17 -7
43 -15 60 -9 16 -20 48 -25 72 -9 42 -42 143 -60 182 -5 11 -22 52 -39 90 -34
80 -145 299 -161 317 -21 25 -60 89 -60 98 0 5 -9 14 -20 20 -11 6 -20 16 -20
22 0 12 -89 123 -177 222 -29 32 -57 73 -63 90 -6 20 -48 65 -117 126 -107 95
-129 112 -255 196 l-68 45 0 82 c0 80 1 84 29 104 39 30 81 104 81 146 0 49
-33 117 -74 152 -31 26 -36 36 -36 76 0 55 13 69 61 69 46 0 117 31 148 64 49
52 61 114 61 313 0 158 -3 189 -20 232 -26 67 -46 89 -105 117 l-50 24 -3020
-1 -3020 0 -40 -21z m6075 -123 c16 -9 32 -26 35 -38 11 -42 1 -395 -11 -407
-6 -6 -29 -16 -50 -20 -23 -6 -1307 -9 -3015 -10 -2542 0 -2978 2 -2995 14
-18 13 -19 29 -19 229 0 167 3 218 14 230 12 16 233 17 3013 17 2662 0 3002
-2 3028 -15z m-246 -615 c33 -12 37 -64 7 -80 -29 -15 -5569 -14 -5587 1 -23
19 -17 68 9 79 31 12 5538 13 5571 0z m116 -250 c12 -18 4 -62 -13 -72 -16
-10 -5758 -10 -5774 0 -15 9 -25 54 -16 68 5 6 15 14 23 17 8 3 1310 5 2893 4
2546 -2 2879 -4 2887 -17z m-109 -230 c17 -9 19 -22 19 -108 0 -53 4 -102 8
-107 8 -11 81 -61 97 -66 15 -6 90 -62 208 -155 141 -112 244 -216 256 -260 5
-19 41 -74 80 -122 38 -49 75 -100 82 -115 7 -15 16 -27 21 -27 5 0 13 -10 19
-22 5 -13 21 -41 34 -63 67 -111 165 -309 165 -332 0 -10 7 -29 16 -41 8 -12
21 -43 28 -69 8 -27 18 -61 24 -78 32 -97 51 -166 57 -210 4 -27 13 -69 21
-93 8 -23 14 -68 14 -100 0 -31 8 -97 18 -147 16 -84 17 -255 17 -2685 -1
-2380 -2 -2607 -18 -2744 -9 -82 -17 -186 -17 -232 0 -45 -9 -128 -20 -184
-11 -56 -20 -120 -20 -143 0 -23 -9 -75 -20 -116 -11 -41 -20 -86 -20 -100 0
-14 -9 -55 -20 -89 -11 -35 -20 -76 -20 -90 -1 -15 -9 -45 -20 -67 -11 -22
-19 -47 -20 -55 -1 -41 -83 -257 -141 -372 -11 -20 -19 -43 -19 -51 0 -8 -7
-20 -15 -27 -14 -11 -20 -22 -62 -103 -9 -17 -32 -54 -52 -82 -19 -27 -52 -74
-73 -104 -21 -30 -38 -64 -38 -75 0 -25 -143 -169 -235 -237 -87 -64 -125 -89
-134 -89 -4 0 -16 -9 -26 -20 -10 -11 -26 -20 -35 -20 -10 0 -28 -8 -41 -18
-13 -10 -49 -28 -79 -41 -30 -13 -73 -31 -95 -41 -56 -24 -99 -40 -175 -60
-36 -10 -78 -23 -93 -29 -16 -6 -43 -11 -60 -11 -18 -1 -50 -8 -72 -16 -22 -9
-105 -23 -185 -31 -126 -14 -403 -17 -2090 -20 -1259 -2 -1968 0 -2010 6 -36
6 -117 13 -180 17 -65 3 -142 14 -179 25 -35 10 -78 19 -97 19 -18 0 -56 9
-84 20 -28 11 -61 20 -73 20 -12 1 -40 9 -62 20 -22 11 -48 19 -58 20 -10 0
-35 9 -55 19 -20 11 -59 29 -87 41 -27 12 -59 26 -70 33 -11 6 -36 19 -57 29
-20 10 -45 29 -56 43 -11 13 -69 64 -129 112 -129 104 -213 191 -297 308 -88
122 -134 198 -183 300 -24 50 -52 107 -63 127 -11 20 -20 43 -20 50 -1 7 -9
31 -20 53 -11 22 -19 48 -20 58 0 10 -9 35 -20 57 -11 22 -20 47 -20 57 0 10
-9 45 -20 78 -40 122 -88 344 -100 465 -4 41 -15 115 -24 164 -9 49 -16 118
-16 155 0 36 -7 131 -15 211 -14 127 -16 476 -16 2755 0 2315 2 2621 15 2705
9 52 16 113 16 135 0 22 9 81 21 130 57 246 83 335 120 407 10 20 19 44 19 53
0 9 9 33 19 53 11 20 34 66 51 102 17 36 35 72 40 80 5 8 27 48 50 88 111 196
328 449 515 600 44 35 84 74 88 87 4 12 31 37 60 55 29 18 64 41 79 51 15 11
32 19 37 19 21 0 31 42 31 135 0 90 1 96 23 105 33 13 5553 13 5578 0z"/>
</g>
</svg>
