<?xml version="1.0" standalone="no"?>
<!DOCTYPE svg PUBLIC "-//W3C//DTD SVG 20010904//EN"
 "http://www.w3.org/TR/2001/REC-SVG-20010904/DTD/svg10.dtd">
<svg version="1.0" xmlns="http://www.w3.org/2000/svg"
 width="400.000000pt" height="400.000000pt" viewBox="0 0 400.000000 400.000000"
 preserveAspectRatio="xMidYMid meet">

<g transform="translate(0.000000,400.000000) scale(0.100000,-0.100000)"
fill="#000000" stroke="none">
<path d="M534 3950 c-38 -15 -54 -50 -54 -115 0 -79 15 -106 68 -125 46 -16
56 -42 23 -59 -15 -8 -18 -19 -16 -48 2 -20 11 -40 19 -45 23 -13 21 -74 -1
-82 -10 -3 -52 -27 -94 -53 -241 -151 -360 -299 -419 -518 -19 -72 -20 -107
-20 -1011 0 -630 4 -958 11 -1003 42 -254 117 -419 250 -548 73 -70 90 -83
189 -137 102 -57 160 -77 305 -108 l110 -23 1090 0 1090 0 115 23 c239 49 359
105 478 224 163 164 222 288 272 572 6 38 10 397 10 997 0 785 -2 947 -14 991
-49 178 -88 248 -211 373 -107 107 -167 155 -246 193 -72 34 -78 39 -78 68 -1
23 6 36 24 48 32 21 32 50 0 82 -31 30 -32 54 -4 54 34 0 85 29 98 56 6 14 11
51 11 82 0 45 -5 63 -24 87 l-24 30 -1469 2 c-814 1 -1478 -2 -1489 -7z m2929
-50 c4 -4 7 -38 5 -76 l-3 -69 -1455 0 -1455 0 0 75 0 75 1425 5 c784 3 1436
3 1450 1 14 -2 29 -7 33 -11z m-120 -215 c-3 -10 -2655 -20 -2681 -10 -60 23
82 25 1341 23 888 -2 1341 -6 1340 -13z m47 -80 c0 -13 -161 -15 -1390 -15
-1229 0 -1390 2 -1390 15 0 13 161 15 1390 15 1229 0 1390 -2 1390 -15z m-48
-105 c-2 -34 0 -36 60 -63 76 -33 218 -123 218 -137 0 -5 20 -28 45 -51 93
-86 164 -197 207 -325 l23 -69 0 -960 c0 -756 -3 -976 -13 -1035 -39 -216
-112 -369 -234 -492 -16 -15 -28 -32 -28 -38 0 -28 -190 -125 -310 -158 -218
-59 -160 -57 -1310 -57 l-1055 0 -115 23 c-167 34 -231 57 -332 120 -214 131
-323 303 -380 597 -10 56 -13 267 -13 1035 l0 965 27 80 c39 114 91 196 183
291 75 76 205 171 300 219 32 16 40 26 42 50 0 17 2 33 2 38 1 4 605 6 1344 5
l1342 -3 -3 -35z"/>
</g>
</svg>
